<svg xmlns="http://www.w3.org/2000/svg" viewBox="0 0 105.65 81.32"><g id="Layer_2" data-name="Layer 2"><g id="Layer_7" data-name="Layer 7"><path d="M105.58,7.45,102,.37a.67.67,0,0,0-1.2,0L97.25,7.45a.68.68,0,0,0,0,.65.67.67,0,0,0,.56.32h2c0,2.84,0,6.21,0,9.9H86.67A4.91,4.91,0,0,0,87,15.26c-.42-2.1-.48-2.24-.48-2.24a1.11,1.11,0,0,1,1.77.33c.15.26.38.13.34-.2s-.06-.58-.06-.58a.73.73,0,0,1,.57.17c.15.15.85.1.73-.23A7.08,7.08,0,0,0,89,10.93a3.16,3.16,0,0,0-1,0c0-1-.24-.61-.24-.61s-.87,1.21-1.18,1.29a1.52,1.52,0,0,1-1.12-.1c-1-1.66-5.5-1.8-7.33.48a5.19,5.19,0,0,0-.75,4.12s.24.79.12,1a2.9,2.9,0,0,0-.1,1.22H1.56a.67.67,0,0,0-.1,1.33H77.57a2.27,2.27,0,0,0,.23.7c.32.53,1,1.83,1.42,1.83h.24l.79,0,0,.84-2.82.05c-1.38.05-4.59,3.63-4.79,6a.48.48,0,0,0,.66.47l0,1.81A5.53,5.53,0,0,0,72.71,33H1.56a.67.67,0,0,0-.67.67.66.66,0,0,0,.57.66H51.38a5.91,5.91,0,0,0-1.12.61c-3.89,2.65-1.53,6.68-.94,7.29a23,23,0,0,1,1.57,2.28c.21.44.37,1-1.81,1.63a8,8,0,0,0-3,2H1.56a.67.67,0,0,0-.67.66.68.68,0,0,0,.57.67H22.37c-.39.17-.69.35-.9.45a6.9,6.9,0,0,0-1.79,1.8A6.92,6.92,0,0,0,19,54.66c.08.6.4.76.36,1s.08.58-.19.79a6.92,6.92,0,0,0,.08,2.77c.18.35.5,1,.19,1.05a16.1,16.1,0,0,1-2.39.65,11.1,11.1,0,0,1-2.3-.4c-.55,0-1.85.21-1.89.52-.43,0-.45,0-.45,0,.42-.48.44-2.6-.39-2.69-.21-.28,0-.12-.88-.18a1.32,1.32,0,0,0-1.91-1.31A17.09,17.09,0,0,0,5.2,58.51c-.36.41-.27,1.94.39,2,.87,0,2,0,2,0a.71.71,0,0,1,0,.63,15.27,15.27,0,0,0-.66,2.31l-5.34-.08a.67.67,0,0,0-.1,1.33h.1l5.1.08a6.6,6.6,0,0,0,0,2.39A2.32,2.32,0,0,0,8.9,68.88c.63,0,.17.39,1,.39A36.08,36.08,0,0,0,16,68.78c.64-.14,1.1-.42,1.24.15.07.27.66,1.34,1.41,1.34h4.94c.21,0,.28-.14.53-.14a2.65,2.65,0,0,0,2.21-.74c.68-.88.64-1.11.37-1.12-.53,0-.8-.42-.69-.58s.93-.15,1.29-.51.53-.59.71-.54.31.27.61.38c.61.24,1,1,1.31,1.21s.63.63.88.63.61-.07.77.18a2,2,0,0,0,.48.6.83.83,0,0,0,.11.51s.27.16.27-.05-.07-.78,0-.79a3.84,3.84,0,0,1,.81,0s.24.26-.23.27c-.17,0,0,.41.21.41s1.72-.06,2-.67a1.06,1.06,0,0,0-.37-1.43,3.93,3.93,0,0,0-2-.59c-.21,0,0-.6-.78-1.24a11.75,11.75,0,0,1-1.06-.86l11.9.19a4.26,4.26,0,0,0,.27.34l0,.48s-1.19.23-1.19.83v.3A3,3,0,0,0,42.24,69a3.07,3.07,0,0,0,1.68,1c.54,0,5.23-.12,5.7-.24.74-.2,1.36-.84,1.54-.84s1.77.37,2.49.42a3,3,0,0,0,1.62-.23,1.14,1.14,0,0,0,.53-1.23c-.12-.6.16-.84.82-.84s4.52-.21,6.55-1.29l15,.25c-.54,1.18-1.35,1.58-1.7,2.51-.5,1.31-.72,2.69-.12,3.21s3.27,1.23,4.13.32c1.1-1.16,1.33-4.88,1.38-5.09a.44.44,0,0,1,.63-.3c2.6,1.3,7,2.12,6.24-.47l11.13.18c0,5.89,0,9.93,0,10.69v.57c0,.19,0,.39,0,.56-.24,0-.66,0-1.34.06h-97a1.56,1.56,0,1,0,0,3.12h97c1.57,0,2.83-.08,3.67-.92a3.63,3.63,0,0,0,.74-2.87V77c0-2.74,0-48.59,0-68.57h2a.69.69,0,0,0,.57-.32A.66.66,0,0,0,105.58,7.45ZM58.44,46.72a4,4,0,0,1-2-.71c-.19-.15-.83-.53.48-1,1.76-.66,1.83-3.64,1.47-4.49a2.28,2.28,0,0,1-.08-1.88,3.7,3.7,0,0,0-.9-2.7,7.3,7.3,0,0,0-2.2-1.54H72.56c0,.15,0,.29,0,.46a2.37,2.37,0,0,0,2.62,2.39h1a45.61,45.61,0,0,1-.59,5c-.21,1.1-.81,3.61-1.32,6H66.08c.12-.42.21-.74.23-.86a1.73,1.73,0,0,0-1.12-1.52c-.73-.18-.89-.44-1.69-.41-.19,0-.33.47-.18.54.71.32,1.08,0,.8.85-.08.27-.58.9-.76.54s-.22-1.16-.64-1,.11,1.33.26,1.89H60C59.51,47.47,58.94,46.77,58.44,46.72Zm-11,8.56s-.68-.3-.64-.64a9.34,9.34,0,0,1,.64-1.52Zm15.7-5.75a1,1,0,0,1,0,.24c-.16.4-.42,1.44-.56,1.94-.08.27-.44.2-.58,0a3.39,3.39,0,0,1-1.12-1.9,2.6,2.6,0,0,0-.13-.32Zm-33,14.27a1.34,1.34,0,0,0-.07-.18c-.15-.44,0-2.38-1.35-3.12-1-.56-1.21-.44-1.39-.68s.12-1,.46-1.27c.8-.72,1.41-3.08,1.63-4.24a4.2,4.2,0,0,0-2.75-4.78H45a5.22,5.22,0,0,0-.39.74,27.49,27.49,0,0,0-1.7,4.93,4.66,4.66,0,0,0,1.7,2.7c1.14.84.84,1.39.84,1.39s-2.75,0-3.35.09-2,.82-1.14,2.8a13.1,13.1,0,0,0,.94,1.8Zm34.33.54a3,3,0,0,0-3.14-3.52c-1.12.08-1.56-.54-1.58-2s0-3.41-.1-5.07c.34.28.42.17.72,1,.82,2.15,3.13,3.17,4,1.11.56-1.38.33-3.62,1-5.2.14-.36.28-.74.41-1.12H74a11.76,11.76,0,0,0-.45,3.77h3.74a.84.84,0,0,1,.87.76,94.09,94.09,0,0,1,.53,9.8c0,.25,0,.48-.08.69Zm35.43.55L87.65,64.7a8.27,8.27,0,0,0-3-1c-.32-.05-1.14.12.14-1.59a13,13,0,0,0,2.48-8.83c0-.41.18-.39.82-.38h.14l4.66,0-.8-3.33h7.72C99.84,55.18,99.84,60.48,99.84,64.89Zm0-16.69h-8c-1-4-2.17-9.07-2.2-9.3s-.15-.81.11-.86a3.46,3.46,0,0,0,2.46-3.53.53.53,0,0,1,0-.13h7.68Zm0-15.16H92c-.19-1.64-.45-2.94-.45-3.23s.28-.71.44-.71.94-.34.32-1.16c-1.09-1.44-2.14-4.61-6.25-4.66A1.82,1.82,0,0,1,84.26,21a5.57,5.57,0,0,0,1.54-1.31h14Z" style="fill:#b5bcc8"/></g></g></svg>