<svg xmlns="http://www.w3.org/2000/svg" viewBox="0 0 97 97"><g id="Layer_2" data-name="Layer 2"><g id="Layer_8" data-name="Layer 8"><circle cx="48.5" cy="48.5" r="48.5" style="fill:#fff"/><path d="M47.08,15.59c0-2.41,1.51-3.75,3.09-3.75s2.59,2.07,2.59,4.48-1,4.25-2.59,4.25S47.08,18,47.08,15.59Zm-5,6.4c2,0,3.24-1,3.24-2.91s-1.14-4.22-3.17-4.22A4.81,4.81,0,0,0,37.93,19C37.93,20.9,40.07,22,42.09,22Zm-9.57,5c2.17,0,3.81-1,3.81-2.79s-1-4-3.12-4A4.49,4.49,0,0,0,29,24.13C29,25.91,30.35,27,32.52,27Zm-.76,5.67c0-1.73-1.51-4-3.32-4S25,30.94,25,32.67a3,3,0,0,0,3,3.14C29.76,35.81,31.76,34.37,31.76,32.63ZM66.42,80.17c.3,9.34-6.94,11.46-13.4,8.68C37.07,82,29.75,73.44,29.63,66.18c-.11-6.43,5.5-9.65,5.1-10-4.88-4.84-9-16,2.4-22.31,5-2.76,19.28-9.27,20.26-13.23a8.36,8.36,0,0,1-.46-.95,8.81,8.81,0,0,1-.62-3.3C56.31,12.3,58.94,9,62.18,9s5.87,3.29,5.87,7.35a17.91,17.91,0,0,1-1.78,6.33c-.41.74-.79.61-.61,1.53C68.38,38.08,61.72,43,57.91,46.53,55.29,49,47.41,52.85,43.68,55.4c-1.7,1.16-2.86,1.67-1.7,2.28C57.16,65.66,66.11,70.82,66.42,80.17ZM64.67,30.93H51.77c-4.08,2-8.08,3.63-11.47,5.26H62.92C64.61,34.44,65.29,32.89,64.67,30.93Zm-9.19-1.88h8.28c-.14-.23-.29-.46-.46-.69-.32-.45-1.59-3-3.71-1.69C58.25,27.52,56.87,28.3,55.48,29.05ZM31.67,42.52H54.52a71.37,71.37,0,0,0,6.31-4.44H36.68C34.33,39.45,32.55,40.88,31.67,42.52Zm.47,5.93H45.36c2.07-1.41,4.17-2.75,6.19-4H31.09A6.67,6.67,0,0,0,32.14,48.45ZM35,52.1c2,2.06,1.78,2.89,5,.3.87-.7,1.78-1.39,2.7-2.06H33.45C33.9,50.9,34.39,51.48,35,52.1Zm-.3,9.34-.11.13h6.77C37.53,59.63,36.11,59.77,34.68,61.44Zm-3.1,6H51.5c-1.5-.86-3.18-1.81-5.23-3l-1.51-.89H33.08A6.43,6.43,0,0,0,31.58,67.39Zm4,6c.45.41.91.82,1.38,1.22H61.71a51.87,51.87,0,0,0-7-5.28H32.11A15.63,15.63,0,0,0,35.54,73.34Zm29.34,9.47H48.7c5.68,3.12,11,4.75,13.68,3.19A5.83,5.83,0,0,0,64.88,82.81ZM63.8,76.45H39.2a75.06,75.06,0,0,0,6.3,4.47H65.27A5.72,5.72,0,0,0,63.8,76.45Z" style="fill:#0066a3"/></g></g></svg>